<mxfile host="app.diagrams.net" modified="2023-11-27T10:05:09.891Z" agent="Mozilla/5.0 (X11; Linux x86_64; rv:109.0) Gecko/20100101 Firefox/115.0" etag="UTxN_4Au0qqIFynfDk2f" version="22.1.4" type="google">
  <diagram id="R2lEEEUBdFMjLlhIrx00" name="Page-1">
    <mxGraphModel grid="1" page="1" gridSize="10" guides="1" tooltips="1" connect="1" arrows="1" fold="1" pageScale="1" pageWidth="1600" pageHeight="1200" math="0" shadow="0" extFonts="Permanent Marker^https://fonts.googleapis.com/css?family=Permanent+Marker">
      <root>
        <mxCell id="0" />
        <mxCell id="1" parent="0" />
        <mxCell id="ENX1rJLDh6_G17ylzVSc-8" style="edgeStyle=none;shape=connector;rounded=1;orthogonalLoop=1;jettySize=auto;html=1;labelBackgroundColor=default;strokeColor=default;strokeWidth=1;align=center;verticalAlign=middle;fontFamily=Helvetica;fontSize=11;fontColor=default;endArrow=none;endFill=0;" edge="1" parent="1" source="ENX1rJLDh6_G17ylzVSc-1" target="ENX1rJLDh6_G17ylzVSc-6">
          <mxGeometry relative="1" as="geometry" />
        </mxCell>
        <mxCell id="ENX1rJLDh6_G17ylzVSc-155" style="edgeStyle=none;shape=connector;rounded=1;orthogonalLoop=1;jettySize=auto;html=1;labelBackgroundColor=default;strokeColor=default;strokeWidth=1;align=center;verticalAlign=middle;fontFamily=Helvetica;fontSize=11;fontColor=default;endArrow=none;endFill=0;" edge="1" parent="1" source="ENX1rJLDh6_G17ylzVSc-1" target="ENX1rJLDh6_G17ylzVSc-11">
          <mxGeometry relative="1" as="geometry" />
        </mxCell>
        <mxCell id="ENX1rJLDh6_G17ylzVSc-157" style="edgeStyle=none;shape=link;rounded=1;orthogonalLoop=1;jettySize=auto;html=1;labelBackgroundColor=default;strokeColor=default;strokeWidth=1;align=center;verticalAlign=middle;fontFamily=Helvetica;fontSize=11;fontColor=default;endArrow=none;endFill=0;" edge="1" parent="1" source="ENX1rJLDh6_G17ylzVSc-1" target="ENX1rJLDh6_G17ylzVSc-117">
          <mxGeometry relative="1" as="geometry" />
        </mxCell>
        <mxCell id="ENX1rJLDh6_G17ylzVSc-165" style="edgeStyle=none;shape=link;rounded=1;orthogonalLoop=1;jettySize=auto;html=1;entryX=0.5;entryY=0;entryDx=0;entryDy=0;labelBackgroundColor=default;strokeColor=default;strokeWidth=1;align=center;verticalAlign=middle;fontFamily=Helvetica;fontSize=11;fontColor=default;endArrow=none;endFill=0;" edge="1" parent="1" source="ENX1rJLDh6_G17ylzVSc-1" target="ENX1rJLDh6_G17ylzVSc-139">
          <mxGeometry relative="1" as="geometry" />
        </mxCell>
        <mxCell id="ENX1rJLDh6_G17ylzVSc-1" value="PAYMENT" style="rounded=0;whiteSpace=wrap;html=1;" vertex="1" parent="1">
          <mxGeometry x="1377" y="135" width="120" height="60" as="geometry" />
        </mxCell>
        <mxCell id="ENX1rJLDh6_G17ylzVSc-7" style="edgeStyle=none;shape=connector;rounded=1;orthogonalLoop=1;jettySize=auto;html=1;exitX=0.5;exitY=1;exitDx=0;exitDy=0;entryX=0.25;entryY=0;entryDx=0;entryDy=0;labelBackgroundColor=default;strokeColor=default;strokeWidth=1;align=center;verticalAlign=middle;fontFamily=Helvetica;fontSize=11;fontColor=default;endArrow=none;endFill=0;" edge="1" parent="1" source="ENX1rJLDh6_G17ylzVSc-5" target="ENX1rJLDh6_G17ylzVSc-1">
          <mxGeometry relative="1" as="geometry" />
        </mxCell>
        <mxCell id="ENX1rJLDh6_G17ylzVSc-5" value="&lt;u&gt;p_id&lt;/u&gt;" style="ellipse;whiteSpace=wrap;html=1;fontFamily=Helvetica;fontSize=11;fontColor=default;" vertex="1" parent="1">
          <mxGeometry x="1322" y="45" width="70" height="40" as="geometry" />
        </mxCell>
        <mxCell id="ENX1rJLDh6_G17ylzVSc-6" value="p_method" style="ellipse;whiteSpace=wrap;html=1;fontFamily=Helvetica;fontSize=11;fontColor=default;" vertex="1" parent="1">
          <mxGeometry x="1407" y="35" width="70" height="40" as="geometry" />
        </mxCell>
        <mxCell id="ENX1rJLDh6_G17ylzVSc-10" style="edgeStyle=none;shape=connector;rounded=1;orthogonalLoop=1;jettySize=auto;html=1;exitX=0.5;exitY=1;exitDx=0;exitDy=0;entryX=0.75;entryY=0;entryDx=0;entryDy=0;labelBackgroundColor=default;strokeColor=default;strokeWidth=1;align=center;verticalAlign=middle;fontFamily=Helvetica;fontSize=11;fontColor=default;endArrow=none;endFill=0;" edge="1" parent="1" source="ENX1rJLDh6_G17ylzVSc-9" target="ENX1rJLDh6_G17ylzVSc-1">
          <mxGeometry relative="1" as="geometry" />
        </mxCell>
        <mxCell id="ENX1rJLDh6_G17ylzVSc-9" value="p_amount" style="ellipse;whiteSpace=wrap;html=1;fontFamily=Helvetica;fontSize=11;fontColor=default;" vertex="1" parent="1">
          <mxGeometry x="1482" y="55" width="70" height="40" as="geometry" />
        </mxCell>
        <mxCell id="ENX1rJLDh6_G17ylzVSc-11" value="p_time" style="ellipse;whiteSpace=wrap;html=1;fontFamily=Helvetica;fontSize=11;fontColor=default;" vertex="1" parent="1">
          <mxGeometry x="1530" y="145" width="70" height="40" as="geometry" />
        </mxCell>
        <mxCell id="ENX1rJLDh6_G17ylzVSc-50" style="edgeStyle=none;rounded=1;orthogonalLoop=1;jettySize=auto;html=1;exitX=1;exitY=0.5;exitDx=0;exitDy=0;labelBackgroundColor=default;strokeColor=default;strokeWidth=1;align=center;verticalAlign=middle;fontFamily=Helvetica;fontSize=11;fontColor=default;endArrow=none;endFill=0;" edge="1" parent="1" source="ENX1rJLDh6_G17ylzVSc-15" target="ENX1rJLDh6_G17ylzVSc-49">
          <mxGeometry relative="1" as="geometry" />
        </mxCell>
        <mxCell id="ENX1rJLDh6_G17ylzVSc-15" value="HOTEL_OWNER" style="rounded=0;whiteSpace=wrap;html=1;" vertex="1" parent="1">
          <mxGeometry x="130" y="550" width="120" height="60" as="geometry" />
        </mxCell>
        <mxCell id="ENX1rJLDh6_G17ylzVSc-19" style="edgeStyle=none;shape=connector;rounded=1;orthogonalLoop=1;jettySize=auto;html=1;labelBackgroundColor=default;strokeColor=default;strokeWidth=1;align=center;verticalAlign=middle;fontFamily=Helvetica;fontSize=11;fontColor=default;endArrow=none;endFill=0;" edge="1" parent="1" source="ENX1rJLDh6_G17ylzVSc-16" target="ENX1rJLDh6_G17ylzVSc-15">
          <mxGeometry relative="1" as="geometry" />
        </mxCell>
        <mxCell id="ENX1rJLDh6_G17ylzVSc-16" value="&lt;u&gt;ho_id&lt;/u&gt;" style="ellipse;whiteSpace=wrap;html=1;fontFamily=Helvetica;fontSize=11;fontColor=default;" vertex="1" parent="1">
          <mxGeometry x="20" y="500" width="70" height="40" as="geometry" />
        </mxCell>
        <mxCell id="ENX1rJLDh6_G17ylzVSc-20" style="edgeStyle=none;shape=connector;rounded=1;orthogonalLoop=1;jettySize=auto;html=1;exitX=1;exitY=0.5;exitDx=0;exitDy=0;entryX=0;entryY=0.5;entryDx=0;entryDy=0;labelBackgroundColor=default;strokeColor=default;strokeWidth=1;align=center;verticalAlign=middle;fontFamily=Helvetica;fontSize=11;fontColor=default;endArrow=none;endFill=0;" edge="1" parent="1" source="ENX1rJLDh6_G17ylzVSc-17" target="ENX1rJLDh6_G17ylzVSc-15">
          <mxGeometry relative="1" as="geometry" />
        </mxCell>
        <mxCell id="ENX1rJLDh6_G17ylzVSc-17" value="ho_name" style="ellipse;whiteSpace=wrap;html=1;fontFamily=Helvetica;fontSize=11;fontColor=default;" vertex="1" parent="1">
          <mxGeometry x="20" y="560" width="70" height="40" as="geometry" />
        </mxCell>
        <mxCell id="ENX1rJLDh6_G17ylzVSc-27" style="edgeStyle=none;shape=connector;rounded=1;orthogonalLoop=1;jettySize=auto;html=1;entryX=0.25;entryY=0;entryDx=0;entryDy=0;labelBackgroundColor=default;strokeColor=default;strokeWidth=1;align=center;verticalAlign=middle;fontFamily=Helvetica;fontSize=11;fontColor=default;endArrow=none;endFill=0;" edge="1" parent="1" source="ENX1rJLDh6_G17ylzVSc-18" target="ENX1rJLDh6_G17ylzVSc-15">
          <mxGeometry relative="1" as="geometry" />
        </mxCell>
        <mxCell id="ENX1rJLDh6_G17ylzVSc-18" value="ho_address" style="ellipse;whiteSpace=wrap;html=1;fontFamily=Helvetica;fontSize=11;fontColor=default;" vertex="1" parent="1">
          <mxGeometry x="75" y="410" width="70" height="40" as="geometry" />
        </mxCell>
        <mxCell id="ENX1rJLDh6_G17ylzVSc-21" value="ho_number" style="ellipse;whiteSpace=wrap;html=1;fontFamily=Helvetica;fontSize=11;fontColor=default;" vertex="1" parent="1">
          <mxGeometry x="145" y="440" width="70" height="40" as="geometry" />
        </mxCell>
        <mxCell id="ENX1rJLDh6_G17ylzVSc-29" style="edgeStyle=none;shape=connector;rounded=1;orthogonalLoop=1;jettySize=auto;html=1;entryX=0.75;entryY=0;entryDx=0;entryDy=0;labelBackgroundColor=default;strokeColor=default;strokeWidth=1;align=center;verticalAlign=middle;fontFamily=Helvetica;fontSize=11;fontColor=default;endArrow=none;endFill=0;" edge="1" parent="1" source="ENX1rJLDh6_G17ylzVSc-22" target="ENX1rJLDh6_G17ylzVSc-15">
          <mxGeometry relative="1" as="geometry" />
        </mxCell>
        <mxCell id="ENX1rJLDh6_G17ylzVSc-22" value="ho_gender" style="ellipse;whiteSpace=wrap;html=1;fontFamily=Helvetica;fontSize=11;fontColor=default;" vertex="1" parent="1">
          <mxGeometry x="220" y="440" width="70" height="40" as="geometry" />
        </mxCell>
        <mxCell id="ENX1rJLDh6_G17ylzVSc-23" value="ho_password" style="ellipse;whiteSpace=wrap;html=1;fontFamily=Helvetica;fontSize=11;fontColor=default;" vertex="1" parent="1">
          <mxGeometry x="20" y="630" width="80" height="50" as="geometry" />
        </mxCell>
        <mxCell id="ENX1rJLDh6_G17ylzVSc-26" style="edgeStyle=none;shape=connector;rounded=1;orthogonalLoop=1;jettySize=auto;html=1;exitX=1;exitY=1;exitDx=0;exitDy=0;labelBackgroundColor=default;strokeColor=default;strokeWidth=1;align=center;verticalAlign=middle;fontFamily=Helvetica;fontSize=11;fontColor=default;endArrow=none;endFill=0;" edge="1" parent="1" source="ENX1rJLDh6_G17ylzVSc-24" target="ENX1rJLDh6_G17ylzVSc-15">
          <mxGeometry relative="1" as="geometry" />
        </mxCell>
        <mxCell id="ENX1rJLDh6_G17ylzVSc-24" value="ho_email" style="ellipse;whiteSpace=wrap;html=1;fontFamily=Helvetica;fontSize=11;fontColor=default;" vertex="1" parent="1">
          <mxGeometry x="25" y="450" width="70" height="40" as="geometry" />
        </mxCell>
        <mxCell id="ENX1rJLDh6_G17ylzVSc-25" style="edgeStyle=none;shape=connector;rounded=1;orthogonalLoop=1;jettySize=auto;html=1;entryX=0.067;entryY=1.033;entryDx=0;entryDy=0;entryPerimeter=0;labelBackgroundColor=default;strokeColor=default;strokeWidth=1;align=center;verticalAlign=middle;fontFamily=Helvetica;fontSize=11;fontColor=default;endArrow=none;endFill=0;" edge="1" parent="1" source="ENX1rJLDh6_G17ylzVSc-23" target="ENX1rJLDh6_G17ylzVSc-15">
          <mxGeometry relative="1" as="geometry" />
        </mxCell>
        <mxCell id="ENX1rJLDh6_G17ylzVSc-28" style="edgeStyle=none;shape=connector;rounded=1;orthogonalLoop=1;jettySize=auto;html=1;exitX=0.5;exitY=1;exitDx=0;exitDy=0;entryX=0.408;entryY=0.033;entryDx=0;entryDy=0;entryPerimeter=0;labelBackgroundColor=default;strokeColor=default;strokeWidth=1;align=center;verticalAlign=middle;fontFamily=Helvetica;fontSize=11;fontColor=default;endArrow=none;endFill=0;" edge="1" parent="1" source="ENX1rJLDh6_G17ylzVSc-21" target="ENX1rJLDh6_G17ylzVSc-15">
          <mxGeometry relative="1" as="geometry" />
        </mxCell>
        <mxCell id="ENX1rJLDh6_G17ylzVSc-79" style="edgeStyle=none;shape=connector;rounded=1;orthogonalLoop=1;jettySize=auto;html=1;exitX=0.75;exitY=1;exitDx=0;exitDy=0;labelBackgroundColor=default;strokeColor=default;strokeWidth=1;align=center;verticalAlign=middle;fontFamily=Helvetica;fontSize=11;fontColor=default;endArrow=none;endFill=0;" edge="1" parent="1" source="ENX1rJLDh6_G17ylzVSc-30" target="ENX1rJLDh6_G17ylzVSc-37">
          <mxGeometry relative="1" as="geometry" />
        </mxCell>
        <mxCell id="ENX1rJLDh6_G17ylzVSc-98" style="edgeStyle=none;shape=connector;rounded=1;orthogonalLoop=1;jettySize=auto;html=1;labelBackgroundColor=default;strokeColor=default;strokeWidth=1;align=center;verticalAlign=middle;fontFamily=Helvetica;fontSize=11;fontColor=default;endArrow=none;endFill=0;" edge="1" parent="1" source="ENX1rJLDh6_G17ylzVSc-30" target="ENX1rJLDh6_G17ylzVSc-94">
          <mxGeometry relative="1" as="geometry" />
        </mxCell>
        <mxCell id="jGBTBhinUIyrrwkKjwSk-12" style="edgeStyle=none;shape=connector;rounded=0;orthogonalLoop=1;jettySize=auto;html=1;entryX=0;entryY=0.5;entryDx=0;entryDy=0;labelBackgroundColor=default;strokeColor=default;align=center;verticalAlign=middle;fontFamily=Helvetica;fontSize=11;fontColor=default;endArrow=none;endFill=0;" edge="1" parent="1" source="ENX1rJLDh6_G17ylzVSc-30" target="ENX1rJLDh6_G17ylzVSc-39">
          <mxGeometry relative="1" as="geometry" />
        </mxCell>
        <mxCell id="XDUcXkjcurWNmdW9d0in-3" style="rounded=0;orthogonalLoop=1;jettySize=auto;html=1;entryX=0;entryY=0.5;entryDx=0;entryDy=0;shape=link;" edge="1" parent="1" source="ENX1rJLDh6_G17ylzVSc-30" target="XDUcXkjcurWNmdW9d0in-2">
          <mxGeometry relative="1" as="geometry" />
        </mxCell>
        <mxCell id="ENX1rJLDh6_G17ylzVSc-30" value="HOTEL" style="rounded=0;whiteSpace=wrap;html=1;" vertex="1" parent="1">
          <mxGeometry x="817.5" y="550" width="120" height="60" as="geometry" />
        </mxCell>
        <mxCell id="ENX1rJLDh6_G17ylzVSc-31" style="edgeStyle=none;shape=connector;rounded=1;orthogonalLoop=1;jettySize=auto;html=1;labelBackgroundColor=default;strokeColor=default;strokeWidth=1;align=center;verticalAlign=middle;fontFamily=Helvetica;fontSize=11;fontColor=default;endArrow=none;endFill=0;" edge="1" parent="1" source="ENX1rJLDh6_G17ylzVSc-32" target="ENX1rJLDh6_G17ylzVSc-30">
          <mxGeometry relative="1" as="geometry" />
        </mxCell>
        <mxCell id="ENX1rJLDh6_G17ylzVSc-32" value="&lt;u&gt;h_id&lt;/u&gt;" style="ellipse;whiteSpace=wrap;html=1;fontFamily=Helvetica;fontSize=11;fontColor=default;" vertex="1" parent="1">
          <mxGeometry x="785" y="640" width="70" height="40" as="geometry" />
        </mxCell>
        <mxCell id="ENX1rJLDh6_G17ylzVSc-36" value="h_location" style="ellipse;whiteSpace=wrap;html=1;fontFamily=Helvetica;fontSize=11;fontColor=default;" vertex="1" parent="1">
          <mxGeometry x="750" y="430" width="70" height="40" as="geometry" />
        </mxCell>
        <mxCell id="ENX1rJLDh6_G17ylzVSc-37" value="h_number" style="ellipse;whiteSpace=wrap;html=1;fontFamily=Helvetica;fontSize=11;fontColor=default;" vertex="1" parent="1">
          <mxGeometry x="890" y="670" width="70" height="40" as="geometry" />
        </mxCell>
        <mxCell id="ENX1rJLDh6_G17ylzVSc-39" value="h_rating" style="ellipse;whiteSpace=wrap;html=1;fontFamily=Helvetica;fontSize=11;fontColor=default;" vertex="1" parent="1">
          <mxGeometry x="1010" y="480" width="70" height="40" as="geometry" />
        </mxCell>
        <mxCell id="ENX1rJLDh6_G17ylzVSc-77" style="edgeStyle=none;shape=connector;rounded=1;orthogonalLoop=1;jettySize=auto;html=1;entryX=0;entryY=0.25;entryDx=0;entryDy=0;labelBackgroundColor=default;strokeColor=default;strokeWidth=1;align=center;verticalAlign=middle;fontFamily=Helvetica;fontSize=11;fontColor=default;endArrow=none;endFill=0;" edge="1" parent="1" source="ENX1rJLDh6_G17ylzVSc-42" target="ENX1rJLDh6_G17ylzVSc-30">
          <mxGeometry relative="1" as="geometry" />
        </mxCell>
        <mxCell id="ENX1rJLDh6_G17ylzVSc-42" value="h_email" style="ellipse;whiteSpace=wrap;html=1;fontFamily=Helvetica;fontSize=11;fontColor=default;" vertex="1" parent="1">
          <mxGeometry x="710" y="510" width="70" height="40" as="geometry" />
        </mxCell>
        <mxCell id="ENX1rJLDh6_G17ylzVSc-74" style="edgeStyle=none;shape=connector;rounded=1;orthogonalLoop=1;jettySize=auto;html=1;entryX=1;entryY=1;entryDx=0;entryDy=0;labelBackgroundColor=default;strokeColor=default;strokeWidth=1;align=center;verticalAlign=middle;fontFamily=Helvetica;fontSize=11;fontColor=default;endArrow=none;endFill=0;" edge="1" parent="1" source="ENX1rJLDh6_G17ylzVSc-45" target="ENX1rJLDh6_G17ylzVSc-30">
          <mxGeometry relative="1" as="geometry" />
        </mxCell>
        <mxCell id="ENX1rJLDh6_G17ylzVSc-45" value="h_incentive" style="ellipse;whiteSpace=wrap;html=1;fontFamily=Helvetica;fontSize=11;fontColor=default;" vertex="1" parent="1">
          <mxGeometry x="970" y="660" width="80" height="50" as="geometry" />
        </mxCell>
        <mxCell id="ENX1rJLDh6_G17ylzVSc-75" style="edgeStyle=none;shape=connector;rounded=1;orthogonalLoop=1;jettySize=auto;html=1;labelBackgroundColor=default;strokeColor=default;strokeWidth=1;align=center;verticalAlign=middle;fontFamily=Helvetica;fontSize=11;fontColor=default;endArrow=none;endFill=0;" edge="1" parent="1" source="ENX1rJLDh6_G17ylzVSc-47" target="ENX1rJLDh6_G17ylzVSc-30">
          <mxGeometry relative="1" as="geometry" />
        </mxCell>
        <mxCell id="ENX1rJLDh6_G17ylzVSc-47" value="h_name" style="ellipse;whiteSpace=wrap;html=1;fontFamily=Helvetica;fontSize=11;fontColor=default;" vertex="1" parent="1">
          <mxGeometry x="935" y="450" width="80" height="40" as="geometry" />
        </mxCell>
        <mxCell id="ENX1rJLDh6_G17ylzVSc-51" style="edgeStyle=none;shape=link;rounded=1;orthogonalLoop=1;jettySize=auto;html=1;entryX=0;entryY=0.5;entryDx=0;entryDy=0;labelBackgroundColor=default;strokeColor=default;strokeWidth=1;align=center;verticalAlign=middle;fontFamily=Helvetica;fontSize=11;fontColor=default;endArrow=none;endFill=0;" edge="1" parent="1" source="ENX1rJLDh6_G17ylzVSc-49" target="ENX1rJLDh6_G17ylzVSc-30">
          <mxGeometry relative="1" as="geometry" />
        </mxCell>
        <mxCell id="ENX1rJLDh6_G17ylzVSc-49" value="OWNS" style="rhombus;whiteSpace=wrap;html=1;fontFamily=Helvetica;fontSize=11;fontColor=default;" vertex="1" parent="1">
          <mxGeometry x="490" y="540" width="80" height="80" as="geometry" />
        </mxCell>
        <mxCell id="ENX1rJLDh6_G17ylzVSc-67" style="edgeStyle=none;shape=connector;rounded=1;orthogonalLoop=1;jettySize=auto;html=1;exitX=0.5;exitY=1;exitDx=0;exitDy=0;labelBackgroundColor=default;strokeColor=default;strokeWidth=1;align=center;verticalAlign=middle;fontFamily=Helvetica;fontSize=11;fontColor=default;endArrow=none;endFill=0;" edge="1" parent="1" source="ENX1rJLDh6_G17ylzVSc-52">
          <mxGeometry relative="1" as="geometry">
            <mxPoint x="906.1324212856839" y="1150.6525555324015" as="targetPoint" />
          </mxGeometry>
        </mxCell>
        <mxCell id="ENX1rJLDh6_G17ylzVSc-69" style="edgeStyle=none;shape=connector;rounded=1;orthogonalLoop=1;jettySize=auto;html=1;exitX=0;exitY=0.5;exitDx=0;exitDy=0;entryX=1;entryY=0.5;entryDx=0;entryDy=0;labelBackgroundColor=default;strokeColor=default;strokeWidth=1;align=center;verticalAlign=middle;fontFamily=Helvetica;fontSize=11;fontColor=default;endArrow=none;endFill=0;" edge="1" parent="1" source="ENX1rJLDh6_G17ylzVSc-52" target="ENX1rJLDh6_G17ylzVSc-54">
          <mxGeometry relative="1" as="geometry" />
        </mxCell>
        <mxCell id="ENX1rJLDh6_G17ylzVSc-160" style="edgeStyle=none;shape=connector;rounded=1;orthogonalLoop=1;jettySize=auto;html=1;entryX=0;entryY=0.5;entryDx=0;entryDy=0;labelBackgroundColor=default;strokeColor=default;strokeWidth=1;align=center;verticalAlign=middle;fontFamily=Helvetica;fontSize=11;fontColor=default;endArrow=none;endFill=0;" edge="1" parent="1" source="ENX1rJLDh6_G17ylzVSc-52" target="ENX1rJLDh6_G17ylzVSc-61">
          <mxGeometry relative="1" as="geometry" />
        </mxCell>
        <mxCell id="jGBTBhinUIyrrwkKjwSk-22" style="edgeStyle=none;rounded=0;orthogonalLoop=1;jettySize=auto;html=1;entryX=0.5;entryY=1;entryDx=0;entryDy=0;labelBackgroundColor=default;strokeColor=default;align=center;verticalAlign=middle;fontFamily=Helvetica;fontSize=11;fontColor=default;endArrow=none;endFill=0;" edge="1" parent="1" source="ENX1rJLDh6_G17ylzVSc-52" target="ENX1rJLDh6_G17ylzVSc-70">
          <mxGeometry relative="1" as="geometry" />
        </mxCell>
        <mxCell id="ENX1rJLDh6_G17ylzVSc-52" value="EMPLOYEE" style="rounded=0;whiteSpace=wrap;html=1;" vertex="1" parent="1">
          <mxGeometry x="817.5" y="990" width="120" height="60" as="geometry" />
        </mxCell>
        <mxCell id="ENX1rJLDh6_G17ylzVSc-53" value="&lt;u&gt;e_id&lt;/u&gt;" style="ellipse;whiteSpace=wrap;html=1;fontFamily=Helvetica;fontSize=11;fontColor=default;" vertex="1" parent="1">
          <mxGeometry x="720" y="1150" width="70" height="40" as="geometry" />
        </mxCell>
        <mxCell id="ENX1rJLDh6_G17ylzVSc-54" value="e_name" style="ellipse;whiteSpace=wrap;html=1;fontFamily=Helvetica;fontSize=11;fontColor=default;" vertex="1" parent="1">
          <mxGeometry x="680" y="990" width="70" height="40" as="geometry" />
        </mxCell>
        <mxCell id="ENX1rJLDh6_G17ylzVSc-62" style="edgeStyle=none;shape=connector;rounded=1;orthogonalLoop=1;jettySize=auto;html=1;entryX=1;entryY=0.75;entryDx=0;entryDy=0;labelBackgroundColor=default;strokeColor=default;strokeWidth=1;align=center;verticalAlign=middle;fontFamily=Helvetica;fontSize=11;fontColor=default;endArrow=none;endFill=0;" edge="1" parent="1" source="ENX1rJLDh6_G17ylzVSc-55" target="ENX1rJLDh6_G17ylzVSc-52">
          <mxGeometry relative="1" as="geometry" />
        </mxCell>
        <mxCell id="ENX1rJLDh6_G17ylzVSc-55" value="e_gender" style="ellipse;whiteSpace=wrap;html=1;fontFamily=Helvetica;fontSize=11;fontColor=default;" vertex="1" parent="1">
          <mxGeometry x="1000" y="1010" width="70" height="40" as="geometry" />
        </mxCell>
        <mxCell id="ENX1rJLDh6_G17ylzVSc-56" value="&lt;u&gt;e_email&lt;/u&gt;" style="ellipse;whiteSpace=wrap;html=1;fontFamily=Helvetica;fontSize=11;fontColor=default;" vertex="1" parent="1">
          <mxGeometry x="1010" y="1080" width="70" height="40" as="geometry" />
        </mxCell>
        <mxCell id="ENX1rJLDh6_G17ylzVSc-65" style="edgeStyle=none;shape=connector;rounded=1;orthogonalLoop=1;jettySize=auto;html=1;labelBackgroundColor=default;strokeColor=default;strokeWidth=1;align=center;verticalAlign=middle;fontFamily=Helvetica;fontSize=11;fontColor=default;endArrow=none;endFill=0;" edge="1" parent="1" target="ENX1rJLDh6_G17ylzVSc-52">
          <mxGeometry relative="1" as="geometry">
            <mxPoint x="820" y="1060" as="targetPoint" />
            <mxPoint x="759.0446741752389" y="1151.6808597714278" as="sourcePoint" />
          </mxGeometry>
        </mxCell>
        <mxCell id="ENX1rJLDh6_G17ylzVSc-57" value="e_password" style="ellipse;whiteSpace=wrap;html=1;fontFamily=Helvetica;fontSize=11;fontColor=default;" vertex="1" parent="1">
          <mxGeometry x="800" y="1150" width="70" height="40" as="geometry" />
        </mxCell>
        <mxCell id="ENX1rJLDh6_G17ylzVSc-58" value="e_address" style="ellipse;whiteSpace=wrap;html=1;fontFamily=Helvetica;fontSize=11;fontColor=default;" vertex="1" parent="1">
          <mxGeometry x="940" y="1110" width="70" height="40" as="geometry" />
        </mxCell>
        <mxCell id="ENX1rJLDh6_G17ylzVSc-59" value="e_salary" style="ellipse;whiteSpace=wrap;html=1;fontFamily=Helvetica;fontSize=11;fontColor=default;" vertex="1" parent="1">
          <mxGeometry x="670" y="1080" width="70" height="40" as="geometry" />
        </mxCell>
        <mxCell id="ENX1rJLDh6_G17ylzVSc-60" value="e_number" style="ellipse;whiteSpace=wrap;html=1;fontFamily=Helvetica;fontSize=11;fontColor=default;" vertex="1" parent="1">
          <mxGeometry x="880" y="1150" width="70" height="40" as="geometry" />
        </mxCell>
        <mxCell id="ENX1rJLDh6_G17ylzVSc-61" value="e_position" style="ellipse;whiteSpace=wrap;html=1;fontFamily=Helvetica;fontSize=11;fontColor=default;" vertex="1" parent="1">
          <mxGeometry x="992.5" y="950" width="70" height="40" as="geometry" />
        </mxCell>
        <mxCell id="ENX1rJLDh6_G17ylzVSc-63" style="edgeStyle=none;shape=connector;rounded=1;orthogonalLoop=1;jettySize=auto;html=1;exitX=0;exitY=0;exitDx=0;exitDy=0;entryX=0.808;entryY=0.983;entryDx=0;entryDy=0;entryPerimeter=0;labelBackgroundColor=default;strokeColor=default;strokeWidth=1;align=center;verticalAlign=middle;fontFamily=Helvetica;fontSize=11;fontColor=default;endArrow=none;endFill=0;" edge="1" parent="1" source="ENX1rJLDh6_G17ylzVSc-58" target="ENX1rJLDh6_G17ylzVSc-52">
          <mxGeometry relative="1" as="geometry" />
        </mxCell>
        <mxCell id="ENX1rJLDh6_G17ylzVSc-64" style="edgeStyle=none;shape=connector;rounded=1;orthogonalLoop=1;jettySize=auto;html=1;entryX=0.35;entryY=1.017;entryDx=0;entryDy=0;entryPerimeter=0;labelBackgroundColor=default;strokeColor=default;strokeWidth=1;align=center;verticalAlign=middle;fontFamily=Helvetica;fontSize=11;fontColor=default;endArrow=none;endFill=0;" edge="1" parent="1" target="ENX1rJLDh6_G17ylzVSc-52">
          <mxGeometry relative="1" as="geometry">
            <mxPoint x="840.3389671529319" y="1150.00093797702" as="sourcePoint" />
          </mxGeometry>
        </mxCell>
        <mxCell id="ENX1rJLDh6_G17ylzVSc-66" style="edgeStyle=none;shape=connector;rounded=1;orthogonalLoop=1;jettySize=auto;html=1;entryX=-0.017;entryY=0.9;entryDx=0;entryDy=0;entryPerimeter=0;labelBackgroundColor=default;strokeColor=default;strokeWidth=1;align=center;verticalAlign=middle;fontFamily=Helvetica;fontSize=11;fontColor=default;endArrow=none;endFill=0;" edge="1" parent="1" source="ENX1rJLDh6_G17ylzVSc-59" target="ENX1rJLDh6_G17ylzVSc-52">
          <mxGeometry relative="1" as="geometry" />
        </mxCell>
        <mxCell id="ENX1rJLDh6_G17ylzVSc-68" style="edgeStyle=none;shape=connector;rounded=1;orthogonalLoop=1;jettySize=auto;html=1;exitX=1;exitY=1;exitDx=0;exitDy=0;entryX=0.029;entryY=0.275;entryDx=0;entryDy=0;entryPerimeter=0;labelBackgroundColor=default;strokeColor=default;strokeWidth=1;align=center;verticalAlign=middle;fontFamily=Helvetica;fontSize=11;fontColor=default;endArrow=none;endFill=0;" edge="1" parent="1" source="ENX1rJLDh6_G17ylzVSc-52" target="ENX1rJLDh6_G17ylzVSc-56">
          <mxGeometry relative="1" as="geometry" />
        </mxCell>
        <mxCell id="ENX1rJLDh6_G17ylzVSc-72" style="edgeStyle=none;shape=link;rounded=1;orthogonalLoop=1;jettySize=auto;html=1;exitX=0.5;exitY=0;exitDx=0;exitDy=0;labelBackgroundColor=default;strokeColor=default;strokeWidth=1;align=center;verticalAlign=middle;fontFamily=Helvetica;fontSize=11;fontColor=default;endArrow=none;endFill=0;" edge="1" parent="1" source="ENX1rJLDh6_G17ylzVSc-70" target="ENX1rJLDh6_G17ylzVSc-30">
          <mxGeometry relative="1" as="geometry" />
        </mxCell>
        <mxCell id="ENX1rJLDh6_G17ylzVSc-70" value="MANAGE" style="rhombus;whiteSpace=wrap;html=1;fontFamily=Helvetica;fontSize=11;fontColor=default;" vertex="1" parent="1">
          <mxGeometry x="837.5" y="780" width="80" height="80" as="geometry" />
        </mxCell>
        <mxCell id="ENX1rJLDh6_G17ylzVSc-101" style="edgeStyle=none;shape=connector;rounded=1;orthogonalLoop=1;jettySize=auto;html=1;entryX=0.5;entryY=1;entryDx=0;entryDy=0;labelBackgroundColor=default;strokeColor=default;strokeWidth=1;align=center;verticalAlign=middle;fontFamily=Helvetica;fontSize=11;fontColor=default;endArrow=none;endFill=0;" edge="1" parent="1" source="ENX1rJLDh6_G17ylzVSc-73" target="ENX1rJLDh6_G17ylzVSc-82">
          <mxGeometry relative="1" as="geometry" />
        </mxCell>
        <mxCell id="ENX1rJLDh6_G17ylzVSc-151" style="edgeStyle=none;shape=connector;rounded=1;orthogonalLoop=1;jettySize=auto;html=1;labelBackgroundColor=default;strokeColor=default;strokeWidth=1;align=center;verticalAlign=middle;fontFamily=Helvetica;fontSize=11;fontColor=default;endArrow=none;endFill=0;" edge="1" parent="1" source="ENX1rJLDh6_G17ylzVSc-73" target="ENX1rJLDh6_G17ylzVSc-85">
          <mxGeometry relative="1" as="geometry" />
        </mxCell>
        <mxCell id="ENX1rJLDh6_G17ylzVSc-153" style="edgeStyle=none;shape=connector;rounded=1;orthogonalLoop=1;jettySize=auto;html=1;entryX=1;entryY=0.5;entryDx=0;entryDy=0;labelBackgroundColor=default;strokeColor=default;strokeWidth=1;align=center;verticalAlign=middle;fontFamily=Helvetica;fontSize=11;fontColor=default;endArrow=none;endFill=0;" edge="1" parent="1" source="ENX1rJLDh6_G17ylzVSc-73" target="ENX1rJLDh6_G17ylzVSc-84">
          <mxGeometry relative="1" as="geometry" />
        </mxCell>
        <mxCell id="ENX1rJLDh6_G17ylzVSc-154" style="edgeStyle=none;shape=connector;rounded=1;orthogonalLoop=1;jettySize=auto;html=1;labelBackgroundColor=default;strokeColor=default;strokeWidth=1;align=center;verticalAlign=middle;fontFamily=Helvetica;fontSize=11;fontColor=default;endArrow=none;endFill=0;" edge="1" parent="1" source="ENX1rJLDh6_G17ylzVSc-73" target="ENX1rJLDh6_G17ylzVSc-86">
          <mxGeometry relative="1" as="geometry" />
        </mxCell>
        <mxCell id="ENX1rJLDh6_G17ylzVSc-156" style="edgeStyle=none;shape=connector;rounded=1;orthogonalLoop=1;jettySize=auto;html=1;entryX=0;entryY=0.5;entryDx=0;entryDy=0;labelBackgroundColor=default;strokeColor=default;strokeWidth=1;align=center;verticalAlign=middle;fontFamily=Helvetica;fontSize=11;fontColor=default;endArrow=none;endFill=0;" edge="1" parent="1" source="ENX1rJLDh6_G17ylzVSc-73" target="ENX1rJLDh6_G17ylzVSc-117">
          <mxGeometry relative="1" as="geometry" />
        </mxCell>
        <mxCell id="jGBTBhinUIyrrwkKjwSk-7" style="edgeStyle=none;shape=connector;rounded=0;orthogonalLoop=1;jettySize=auto;html=1;entryX=0;entryY=0.5;entryDx=0;entryDy=0;labelBackgroundColor=default;strokeColor=default;align=center;verticalAlign=middle;fontFamily=Helvetica;fontSize=11;fontColor=default;endArrow=none;endFill=0;" edge="1" parent="1" source="ENX1rJLDh6_G17ylzVSc-73" target="jGBTBhinUIyrrwkKjwSk-3">
          <mxGeometry relative="1" as="geometry" />
        </mxCell>
        <mxCell id="jGBTBhinUIyrrwkKjwSk-11" style="edgeStyle=none;shape=connector;rounded=0;orthogonalLoop=1;jettySize=auto;html=1;entryX=0.5;entryY=0;entryDx=0;entryDy=0;labelBackgroundColor=default;strokeColor=default;align=center;verticalAlign=middle;fontFamily=Helvetica;fontSize=11;fontColor=default;endArrow=none;endFill=0;" edge="1" parent="1" source="ENX1rJLDh6_G17ylzVSc-73" target="ENX1rJLDh6_G17ylzVSc-113">
          <mxGeometry relative="1" as="geometry" />
        </mxCell>
        <mxCell id="ENX1rJLDh6_G17ylzVSc-73" value="CUSTOMER" style="rounded=0;whiteSpace=wrap;html=1;" vertex="1" parent="1">
          <mxGeometry x="820" y="140" width="115" height="50" as="geometry" />
        </mxCell>
        <mxCell id="ENX1rJLDh6_G17ylzVSc-78" style="edgeStyle=none;shape=connector;rounded=1;orthogonalLoop=1;jettySize=auto;html=1;entryX=0.1;entryY=0.05;entryDx=0;entryDy=0;entryPerimeter=0;labelBackgroundColor=default;strokeColor=default;strokeWidth=1;align=center;verticalAlign=middle;fontFamily=Helvetica;fontSize=11;fontColor=default;endArrow=none;endFill=0;" edge="1" parent="1" source="ENX1rJLDh6_G17ylzVSc-36" target="ENX1rJLDh6_G17ylzVSc-30">
          <mxGeometry relative="1" as="geometry" />
        </mxCell>
        <mxCell id="ENX1rJLDh6_G17ylzVSc-81" value="&lt;u&gt;c_id&lt;/u&gt;" style="ellipse;whiteSpace=wrap;html=1;fontFamily=Helvetica;fontSize=11;fontColor=default;" vertex="1" parent="1">
          <mxGeometry x="850" y="60" width="70" height="40" as="geometry" />
        </mxCell>
        <mxCell id="ENX1rJLDh6_G17ylzVSc-82" value="c_name" style="ellipse;whiteSpace=wrap;html=1;fontFamily=Helvetica;fontSize=11;fontColor=default;" vertex="1" parent="1">
          <mxGeometry x="920" y="40" width="70" height="40" as="geometry" />
        </mxCell>
        <mxCell id="ENX1rJLDh6_G17ylzVSc-83" value="c_number" style="ellipse;whiteSpace=wrap;html=1;fontFamily=Helvetica;fontSize=11;fontColor=default;" vertex="1" parent="1">
          <mxGeometry x="740" y="50" width="70" height="40" as="geometry" />
        </mxCell>
        <mxCell id="ENX1rJLDh6_G17ylzVSc-84" value="c_email" style="ellipse;whiteSpace=wrap;html=1;fontFamily=Helvetica;fontSize=11;fontColor=default;" vertex="1" parent="1">
          <mxGeometry x="630" y="120" width="70" height="40" as="geometry" />
        </mxCell>
        <mxCell id="ENX1rJLDh6_G17ylzVSc-85" value="c_gender" style="ellipse;whiteSpace=wrap;html=1;fontFamily=Helvetica;fontSize=11;fontColor=default;" vertex="1" parent="1">
          <mxGeometry x="660" y="60" width="70" height="40" as="geometry" />
        </mxCell>
        <mxCell id="ENX1rJLDh6_G17ylzVSc-86" value="c_password" style="ellipse;whiteSpace=wrap;html=1;fontFamily=Helvetica;fontSize=11;fontColor=default;" vertex="1" parent="1">
          <mxGeometry x="630" y="190" width="70" height="40" as="geometry" />
        </mxCell>
        <mxCell id="ENX1rJLDh6_G17ylzVSc-87" value="c_class" style="ellipse;whiteSpace=wrap;html=1;fontFamily=Helvetica;fontSize=11;fontColor=default;" vertex="1" parent="1">
          <mxGeometry x="800" y="10" width="70" height="40" as="geometry" />
        </mxCell>
        <mxCell id="ENX1rJLDh6_G17ylzVSc-88" value="c_booking" style="ellipse;whiteSpace=wrap;html=1;fontFamily=Helvetica;fontSize=11;fontColor=default;" vertex="1" parent="1">
          <mxGeometry x="1020" y="40" width="70" height="40" as="geometry" />
        </mxCell>
        <mxCell id="ENX1rJLDh6_G17ylzVSc-94" value="h_features" style="ellipse;shape=doubleEllipse;margin=3;whiteSpace=wrap;html=1;align=center;fontFamily=Helvetica;fontSize=11;fontColor=default;" vertex="1" parent="1">
          <mxGeometry x="665" y="630" width="85" height="50" as="geometry" />
        </mxCell>
        <mxCell id="ENX1rJLDh6_G17ylzVSc-102" style="edgeStyle=none;shape=connector;rounded=1;orthogonalLoop=1;jettySize=auto;html=1;entryX=0.07;entryY=0.02;entryDx=0;entryDy=0;entryPerimeter=0;labelBackgroundColor=default;strokeColor=default;strokeWidth=1;align=center;verticalAlign=middle;fontFamily=Helvetica;fontSize=11;fontColor=default;endArrow=none;endFill=0;" edge="1" parent="1" source="ENX1rJLDh6_G17ylzVSc-83" target="ENX1rJLDh6_G17ylzVSc-73">
          <mxGeometry relative="1" as="geometry" />
        </mxCell>
        <mxCell id="ENX1rJLDh6_G17ylzVSc-107" style="edgeStyle=none;shape=connector;rounded=1;orthogonalLoop=1;jettySize=auto;html=1;entryX=0.435;entryY=0.02;entryDx=0;entryDy=0;entryPerimeter=0;labelBackgroundColor=default;strokeColor=default;strokeWidth=1;align=center;verticalAlign=middle;fontFamily=Helvetica;fontSize=11;fontColor=default;endArrow=none;endFill=0;" edge="1" parent="1" source="ENX1rJLDh6_G17ylzVSc-81" target="ENX1rJLDh6_G17ylzVSc-73">
          <mxGeometry relative="1" as="geometry" />
        </mxCell>
        <mxCell id="ENX1rJLDh6_G17ylzVSc-108" style="edgeStyle=none;shape=connector;rounded=1;orthogonalLoop=1;jettySize=auto;html=1;entryX=0.183;entryY=-0.06;entryDx=0;entryDy=0;entryPerimeter=0;labelBackgroundColor=default;strokeColor=default;strokeWidth=1;align=center;verticalAlign=middle;fontFamily=Helvetica;fontSize=11;fontColor=default;endArrow=none;endFill=0;" edge="1" parent="1" source="ENX1rJLDh6_G17ylzVSc-87" target="ENX1rJLDh6_G17ylzVSc-73">
          <mxGeometry relative="1" as="geometry" />
        </mxCell>
        <mxCell id="ENX1rJLDh6_G17ylzVSc-111" style="edgeStyle=none;shape=connector;rounded=1;orthogonalLoop=1;jettySize=auto;html=1;entryX=0.913;entryY=0;entryDx=0;entryDy=0;entryPerimeter=0;labelBackgroundColor=default;strokeColor=default;strokeWidth=1;align=center;verticalAlign=middle;fontFamily=Helvetica;fontSize=11;fontColor=default;endArrow=none;endFill=0;" edge="1" parent="1" source="ENX1rJLDh6_G17ylzVSc-88" target="ENX1rJLDh6_G17ylzVSc-73">
          <mxGeometry relative="1" as="geometry" />
        </mxCell>
        <mxCell id="ENX1rJLDh6_G17ylzVSc-115" style="edgeStyle=none;shape=link;rounded=1;orthogonalLoop=1;jettySize=auto;html=1;exitX=0.5;exitY=1;exitDx=0;exitDy=0;entryX=0.5;entryY=0;entryDx=0;entryDy=0;labelBackgroundColor=default;strokeColor=default;strokeWidth=1;align=center;verticalAlign=middle;fontFamily=Helvetica;fontSize=11;fontColor=default;endArrow=none;endFill=0;" edge="1" parent="1" source="ENX1rJLDh6_G17ylzVSc-113" target="ENX1rJLDh6_G17ylzVSc-30">
          <mxGeometry relative="1" as="geometry" />
        </mxCell>
        <mxCell id="ENX1rJLDh6_G17ylzVSc-113" value="VIEWS" style="rhombus;whiteSpace=wrap;html=1;fontFamily=Helvetica;fontSize=11;fontColor=default;" vertex="1" parent="1">
          <mxGeometry x="837.5" y="310" width="80" height="80" as="geometry" />
        </mxCell>
        <mxCell id="ENX1rJLDh6_G17ylzVSc-117" value="MAKE" style="rhombus;whiteSpace=wrap;html=1;fontFamily=Helvetica;fontSize=11;fontColor=default;" vertex="1" parent="1">
          <mxGeometry x="1110" y="125" width="80" height="80" as="geometry" />
        </mxCell>
        <mxCell id="ENX1rJLDh6_G17ylzVSc-125" value="&lt;u&gt;r_roomNo&lt;/u&gt;" style="ellipse;whiteSpace=wrap;html=1;fontFamily=Helvetica;fontSize=11;fontColor=default;" vertex="1" parent="1">
          <mxGeometry x="1420" y="650" width="70" height="40" as="geometry" />
        </mxCell>
        <mxCell id="ENX1rJLDh6_G17ylzVSc-132" style="edgeStyle=none;shape=connector;rounded=1;orthogonalLoop=1;jettySize=auto;html=1;entryX=1;entryY=1;entryDx=0;entryDy=0;labelBackgroundColor=default;strokeColor=default;strokeWidth=1;align=center;verticalAlign=middle;fontFamily=Helvetica;fontSize=11;fontColor=default;endArrow=none;endFill=0;" edge="1" parent="1" source="ENX1rJLDh6_G17ylzVSc-129" target="ENX1rJLDh6_G17ylzVSc-125">
          <mxGeometry relative="1" as="geometry" />
        </mxCell>
        <mxCell id="ENX1rJLDh6_G17ylzVSc-129" value="r_serialNo" style="ellipse;whiteSpace=wrap;html=1;fontFamily=Helvetica;fontSize=11;fontColor=default;" vertex="1" parent="1">
          <mxGeometry x="1470" y="720" width="70" height="40" as="geometry" />
        </mxCell>
        <mxCell id="ENX1rJLDh6_G17ylzVSc-130" value="r_floorNo" style="ellipse;whiteSpace=wrap;html=1;fontFamily=Helvetica;fontSize=11;fontColor=default;" vertex="1" parent="1">
          <mxGeometry x="1395" y="730" width="70" height="40" as="geometry" />
        </mxCell>
        <mxCell id="ENX1rJLDh6_G17ylzVSc-131" style="edgeStyle=none;shape=connector;rounded=1;orthogonalLoop=1;jettySize=auto;html=1;entryX=0.357;entryY=0.875;entryDx=0;entryDy=0;entryPerimeter=0;labelBackgroundColor=default;strokeColor=default;strokeWidth=1;align=center;verticalAlign=middle;fontFamily=Helvetica;fontSize=11;fontColor=default;endArrow=none;endFill=0;" edge="1" parent="1" source="ENX1rJLDh6_G17ylzVSc-130" target="ENX1rJLDh6_G17ylzVSc-125">
          <mxGeometry relative="1" as="geometry" />
        </mxCell>
        <mxCell id="ENX1rJLDh6_G17ylzVSc-133" value="r_avalibility" style="ellipse;whiteSpace=wrap;html=1;fontFamily=Helvetica;fontSize=11;fontColor=default;" vertex="1" parent="1">
          <mxGeometry x="1520" y="650" width="70" height="40" as="geometry" />
        </mxCell>
        <mxCell id="ENX1rJLDh6_G17ylzVSc-134" value="r_type" style="ellipse;whiteSpace=wrap;html=1;fontFamily=Helvetica;fontSize=11;fontColor=default;" vertex="1" parent="1">
          <mxGeometry x="1529.97" y="490" width="70" height="40" as="geometry" />
        </mxCell>
        <mxCell id="ENX1rJLDh6_G17ylzVSc-135" value="r_price" style="ellipse;whiteSpace=wrap;html=1;fontFamily=Helvetica;fontSize=11;fontColor=default;" vertex="1" parent="1">
          <mxGeometry x="1290" y="640" width="70" height="40" as="geometry" />
        </mxCell>
        <mxCell id="ENX1rJLDh6_G17ylzVSc-139" value="CONFIRMS" style="rhombus;whiteSpace=wrap;html=1;fontFamily=Helvetica;fontSize=11;fontColor=default;" vertex="1" parent="1">
          <mxGeometry x="1397" y="350" width="80" height="80" as="geometry" />
        </mxCell>
        <mxCell id="ENX1rJLDh6_G17ylzVSc-148" style="edgeStyle=none;shape=connector;rounded=1;orthogonalLoop=1;jettySize=auto;html=1;entryX=0;entryY=1;entryDx=0;entryDy=0;labelBackgroundColor=default;strokeColor=default;strokeWidth=1;align=center;verticalAlign=middle;fontFamily=Helvetica;fontSize=11;fontColor=default;endArrow=none;endFill=0;" edge="1" parent="1" source="ENX1rJLDh6_G17ylzVSc-140" target="ENX1rJLDh6_G17ylzVSc-134">
          <mxGeometry relative="1" as="geometry" />
        </mxCell>
        <mxCell id="ENX1rJLDh6_G17ylzVSc-150" style="edgeStyle=none;shape=connector;rounded=1;orthogonalLoop=1;jettySize=auto;html=1;entryX=0.5;entryY=0;entryDx=0;entryDy=0;labelBackgroundColor=default;strokeColor=default;strokeWidth=1;align=center;verticalAlign=middle;fontFamily=Helvetica;fontSize=11;fontColor=default;endArrow=none;endFill=0;" edge="1" parent="1" source="ENX1rJLDh6_G17ylzVSc-140" target="ENX1rJLDh6_G17ylzVSc-125">
          <mxGeometry relative="1" as="geometry" />
        </mxCell>
        <mxCell id="ENX1rJLDh6_G17ylzVSc-166" style="edgeStyle=none;shape=link;rounded=1;orthogonalLoop=1;jettySize=auto;html=1;entryX=0.5;entryY=1;entryDx=0;entryDy=0;labelBackgroundColor=default;strokeColor=default;strokeWidth=1;align=center;verticalAlign=middle;fontFamily=Helvetica;fontSize=11;fontColor=default;endArrow=none;endFill=0;" edge="1" parent="1" source="ENX1rJLDh6_G17ylzVSc-140" target="ENX1rJLDh6_G17ylzVSc-139">
          <mxGeometry relative="1" as="geometry" />
        </mxCell>
        <mxCell id="XDUcXkjcurWNmdW9d0in-5" style="rounded=0;orthogonalLoop=1;jettySize=auto;html=1;endArrow=none;endFill=0;" edge="1" parent="1" source="ENX1rJLDh6_G17ylzVSc-140" target="ENX1rJLDh6_G17ylzVSc-133">
          <mxGeometry relative="1" as="geometry" />
        </mxCell>
        <mxCell id="ENX1rJLDh6_G17ylzVSc-140" value="ROOM" style="shape=ext;margin=3;double=1;whiteSpace=wrap;html=1;align=center;fontFamily=Helvetica;fontSize=11;fontColor=default;" vertex="1" parent="1">
          <mxGeometry x="1372" y="550" width="130" height="60" as="geometry" />
        </mxCell>
        <mxCell id="ENX1rJLDh6_G17ylzVSc-145" style="edgeStyle=none;shape=connector;rounded=1;orthogonalLoop=1;jettySize=auto;html=1;entryX=0.1;entryY=0.967;entryDx=0;entryDy=0;entryPerimeter=0;labelBackgroundColor=default;strokeColor=default;strokeWidth=1;align=center;verticalAlign=middle;fontFamily=Helvetica;fontSize=11;fontColor=default;endArrow=none;endFill=0;" edge="1" parent="1" source="ENX1rJLDh6_G17ylzVSc-135" target="ENX1rJLDh6_G17ylzVSc-140">
          <mxGeometry relative="1" as="geometry" />
        </mxCell>
        <mxCell id="jGBTBhinUIyrrwkKjwSk-3" value="c_issues" style="ellipse;shape=doubleEllipse;margin=3;whiteSpace=wrap;html=1;align=center;fontFamily=Helvetica;fontSize=11;fontColor=default;" vertex="1" parent="1">
          <mxGeometry x="615" y="260" width="85" height="50" as="geometry" />
        </mxCell>
        <mxCell id="jGBTBhinUIyrrwkKjwSk-8" value="N" style="text;html=1;align=center;verticalAlign=middle;resizable=0;points=[];autosize=1;strokeColor=none;fillColor=none;fontSize=11;fontFamily=Helvetica;fontColor=default;" vertex="1" parent="1">
          <mxGeometry x="875" y="280" width="30" height="30" as="geometry" />
        </mxCell>
        <mxCell id="jGBTBhinUIyrrwkKjwSk-13" value="M" style="text;html=1;align=center;verticalAlign=middle;resizable=0;points=[];autosize=1;strokeColor=none;fillColor=none;fontSize=11;fontFamily=Helvetica;fontColor=default;" vertex="1" parent="1">
          <mxGeometry x="875" y="390" width="30" height="30" as="geometry" />
        </mxCell>
        <mxCell id="jGBTBhinUIyrrwkKjwSk-14" value="M" style="text;html=1;align=center;verticalAlign=middle;resizable=0;points=[];autosize=1;strokeColor=none;fillColor=none;fontSize=11;fontFamily=Helvetica;fontColor=default;" vertex="1" parent="1">
          <mxGeometry x="460" y="550" width="30" height="30" as="geometry" />
        </mxCell>
        <mxCell id="jGBTBhinUIyrrwkKjwSk-15" value="N" style="text;html=1;align=center;verticalAlign=middle;resizable=0;points=[];autosize=1;strokeColor=none;fillColor=none;fontSize=11;fontFamily=Helvetica;fontColor=default;" vertex="1" parent="1">
          <mxGeometry x="570" y="550" width="30" height="30" as="geometry" />
        </mxCell>
        <mxCell id="jGBTBhinUIyrrwkKjwSk-16" value="N" style="text;html=1;align=center;verticalAlign=middle;resizable=0;points=[];autosize=1;strokeColor=none;fillColor=none;fontSize=11;fontFamily=Helvetica;fontColor=default;" vertex="1" parent="1">
          <mxGeometry x="1060" y="550" width="30" height="30" as="geometry" />
        </mxCell>
        <mxCell id="jGBTBhinUIyrrwkKjwSk-17" value="1" style="text;html=1;align=center;verticalAlign=middle;resizable=0;points=[];autosize=1;strokeColor=none;fillColor=none;fontSize=11;fontFamily=Helvetica;fontColor=default;" vertex="1" parent="1">
          <mxGeometry x="1210" y="550" width="30" height="30" as="geometry" />
        </mxCell>
        <mxCell id="jGBTBhinUIyrrwkKjwSk-18" value="N" style="text;html=1;align=center;verticalAlign=middle;resizable=0;points=[];autosize=1;strokeColor=none;fillColor=none;fontSize=11;fontFamily=Helvetica;fontColor=default;" vertex="1" parent="1">
          <mxGeometry x="1440" y="320" width="30" height="30" as="geometry" />
        </mxCell>
        <mxCell id="jGBTBhinUIyrrwkKjwSk-19" value="1" style="text;html=1;align=center;verticalAlign=middle;resizable=0;points=[];autosize=1;strokeColor=none;fillColor=none;fontSize=11;fontFamily=Helvetica;fontColor=default;" vertex="1" parent="1">
          <mxGeometry x="1435" y="435" width="30" height="30" as="geometry" />
        </mxCell>
        <mxCell id="jGBTBhinUIyrrwkKjwSk-20" value="1" style="text;html=1;align=center;verticalAlign=middle;resizable=0;points=[];autosize=1;strokeColor=none;fillColor=none;fontSize=11;fontFamily=Helvetica;fontColor=default;" vertex="1" parent="1">
          <mxGeometry x="1190" y="135" width="30" height="30" as="geometry" />
        </mxCell>
        <mxCell id="jGBTBhinUIyrrwkKjwSk-21" value="N" style="text;html=1;align=center;verticalAlign=middle;resizable=0;points=[];autosize=1;strokeColor=none;fillColor=none;fontSize=11;fontFamily=Helvetica;fontColor=default;" vertex="1" parent="1">
          <mxGeometry x="1080" y="135" width="30" height="30" as="geometry" />
        </mxCell>
        <mxCell id="jGBTBhinUIyrrwkKjwSk-23" value="M" style="text;html=1;align=center;verticalAlign=middle;resizable=0;points=[];autosize=1;strokeColor=none;fillColor=none;fontSize=11;fontFamily=Helvetica;fontColor=default;" vertex="1" parent="1">
          <mxGeometry x="875" y="750" width="30" height="30" as="geometry" />
        </mxCell>
        <mxCell id="XDUcXkjcurWNmdW9d0in-1" value="N" style="text;html=1;align=center;verticalAlign=middle;resizable=0;points=[];autosize=1;strokeColor=none;fillColor=none;" vertex="1" parent="1">
          <mxGeometry x="875" y="870" width="30" height="30" as="geometry" />
        </mxCell>
        <mxCell id="XDUcXkjcurWNmdW9d0in-2" value="HAS" style="shape=rhombus;double=1;perimeter=rhombusPerimeter;whiteSpace=wrap;html=1;align=center;" vertex="1" parent="1">
          <mxGeometry x="1090" y="550" width="120" height="60" as="geometry" />
        </mxCell>
        <mxCell id="XDUcXkjcurWNmdW9d0in-4" style="rounded=0;orthogonalLoop=1;jettySize=auto;html=1;entryX=0.95;entryY=0.467;entryDx=0;entryDy=0;entryPerimeter=0;shape=link;" edge="1" parent="1" source="ENX1rJLDh6_G17ylzVSc-140" target="XDUcXkjcurWNmdW9d0in-2">
          <mxGeometry relative="1" as="geometry" />
        </mxCell>
      </root>
    </mxGraphModel>
  </diagram>
</mxfile>
